<?xml version="1.0" encoding="utf-8"?>
<svg width="48px" height="48px" viewBox="0 0 48 48" version="1.1" xmlns:xlink="http://www.w3.org/1999/xlink" xmlns="http://www.w3.org/2000/svg">
  <desc>Created with Lunacy</desc>
  <g id="advanced-payment-unselected" transform="translate(0.25 0.25)">
    <path d="M0 0L47 0L47 47L0 47L0 0Z" id="Background" fill="none" stroke="none" />
    <g id="advanced-payment-unselected" transform="translate(0.25 0.25)">
      <path d="M0 0L46 0L46 46L0 46L0 0L0 0Z" id="Background" fill="none" stroke="none" />
      <g id="Extras">
        <g id="generate_statement_normal">
          <path d="M46 0L0 0L0 46L46 46L46 0L46 0Z" id="Bounds" fill="#000000" stroke="none" />
          <g id="generate_claims_normal" transform="translate(9 2)">
            <path d="M19.7243 0.404341C19.4649 0.1449 19.1144 0 18.7487 0L2.76 0C1.2351 0 0 1.2351 0 2.76L0 24.84C0 26.3635 1.2351 27.6 2.76 27.6L24.84 27.6C26.3649 27.6 27.6 26.3635 27.6 24.84L27.6 8.85132C27.6 8.48562 27.4551 8.1351 27.1957 7.87566L19.7243 0.404341ZM26.04 24.51C26.04 25.3546 25.3546 26.04 24.51 26.04L3.09 26.04C2.24544 26.04 1.56 25.3546 1.56 24.51L1.56 3.09C1.56 2.24544 2.24544 1.56 3.09 1.56L16.86 1.56L16.86 7.68C16.86 9.36912 18.2293 10.74 19.92 10.74L26.04 10.74L26.04 24.51ZM5.00622 17.48L17.8683 17.48C18.2471 17.48 18.5545 17.0937 18.5545 16.6176C18.5545 16.1416 18.2471 15.7552 17.8683 15.7552L5.00622 15.7552C4.62743 15.7552 4.32001 16.1416 4.32001 16.6176C4.32001 17.0937 4.62743 17.48 5.00622 17.48ZM21.2993 20.1681C21.2993 19.692 20.8894 19.3057 20.3844 19.3057L5.23495 19.3057C4.7299 19.3057 4.32001 19.692 4.32001 20.1681C4.32001 20.6441 4.7299 21.0305 5.23495 21.0305L20.3844 21.0305C20.8894 21.0305 21.2993 20.6441 21.2993 20.1681ZM17.8683 24.48L5.00622 24.48C4.62743 24.48 4.32001 24.0937 4.32001 23.6176C4.32001 23.1416 4.62743 22.7552 5.00622 22.7552L17.8683 22.7552C18.2471 22.7552 18.5545 23.1416 18.5545 23.6176C18.5545 24.0937 18.2471 24.48 17.8683 24.48Z" transform="translate(0 8.399994)" id="file_text_data-[#1700]" fill="#FFFFFF" fill-rule="evenodd" stroke="none" />
            <path d="M4 4.27778C4 3.56015 3.42143 2.85185 2.28571 2.85185L2.28571 1.03704L2.85714 1.03704C3.17286 1.03704 3.42857 1.26907 3.42857 1.55556L4 1.55556C4 0.982852 3.48829 0.518518 2.85714 0.518518L2.28571 0.518518L2.28571 0L1.71429 0L1.71429 0.518518C0.583428 0.518518 0 1.22422 0 1.94444C0 2.66208 0.578571 3.37037 1.71429 3.37037L1.71429 5.18518L1.14286 5.18518C0.827143 5.18518 0.571429 4.95315 0.571429 4.66667L0 4.66667C0 5.23937 0.511714 5.7037 1.14286 5.7037L1.71429 5.7037L1.71429 6.22222L2.28571 6.22222L2.28571 5.7037C3.41657 5.7037 4 4.998 4 4.27778ZM0.444458 1.77777C0.444458 2.25295 0.890791 2.66666 1.77779 2.66666L1.77779 0.888885C0.868124 0.888885 0.444458 1.31835 0.444458 1.77777ZM2.22223 5.33332C3.1319 5.33332 3.55556 4.90386 3.55556 4.44443C3.55556 3.96926 3.10923 3.55554 2.22223 3.55554L2.22223 5.33332Z" transform="translate(5 14)" id="dollar-[#1189]" fill="#FFFFFF" fill-rule="evenodd" stroke="#FFFFFF" stroke-width="0.5" />
            <path d="M0 10.8C0 4.83532 4.83532 0 10.8 0C16.7647 0 21.6 4.83532 21.6 10.8C21.6 16.7647 16.7647 21.6 10.8 21.6C4.83532 21.6 0 16.7647 0 10.8L0 10.8Z" transform="translate(14.39999 0)" id="Oval" fill="#000000" stroke="none" />
            <path d="M6.02153 0L7.80853 0L6.87878 2.3145L6.11278 2.3145L6.75628 0.71275L6.25078 0.71275L4.90428 1.6865L3.55828 0.71275L3.04978 0.71275L3.68128 2.3145L2.91653 2.3145L2.00403 0L3.78728 0L4.90428 0.80825L6.02153 0ZM2.68927 2.64874L7.10177 2.64874L7.10177 3.64874L2.68927 3.64874L2.68927 2.64874ZM8.61303 6.96449L6.41702 3.70224L7.27328 3.70224L9.20328 6.56949C9.60152 7.16074 9.78827 7.82224 9.79053 8.49174C9.79803 10.6995 8.01178 12.5 5.82052 12.5L3.97003 12.5C1.77903 12.5 -0.00772476 10.6995 2.47955e-05 8.49174C0.00227547 7.82249 0.189026 7.16124 0.587275 6.56949L2.51727 3.70224L3.37353 3.70224L1.17752 6.96449C0.860275 7.43574 0.711775 7.96099 0.709776 8.49174C0.703526 10.306 2.16928 11.7872 3.97003 11.7872L5.82052 11.7872C7.62152 11.7872 9.08702 10.306 9.08077 8.49174C9.07878 7.96099 8.93027 7.43574 8.61303 6.96449ZM5.26253 6.31249C5.55078 6.40374 5.73003 6.55849 5.95078 6.74799L5.44128 7.27174C5.22903 7.09899 4.99053 6.90524 4.69603 7.01624C4.44378 7.11074 4.30328 7.38649 4.54003 7.58874C4.78828 7.79999 5.31653 7.70249 5.72678 8.05224C6.05178 8.32949 6.19328 8.73574 6.05828 9.14824C5.93353 9.53024 5.63653 9.77499 5.26253 9.89774L5.26253 10.349L4.52803 10.349L4.52803 9.88574C4.23928 9.79424 4.06053 9.63924 3.83953 9.45024L4.34928 8.92674C4.56178 9.09924 4.80028 9.29249 5.09453 9.18199C5.34078 9.08949 5.49053 8.81424 5.25053 8.60924C5.00353 8.39874 4.47428 8.49624 4.06353 8.14574C3.73878 7.86849 3.59728 7.46224 3.73228 7.04974C3.85703 6.66799 4.15403 6.42299 4.52803 6.30024L4.52803 5.84924L5.26253 5.84924L5.26253 6.31249Z" transform="translate(16 9)" id="Shape" fill="#FFFFFF" fill-rule="evenodd" stroke="#FFFFFF" stroke-width="0.4" />
          </g>
        </g>
      </g>
    </g>
  </g>
</svg>