<?xml version="1.0" encoding="UTF-8"?>
<svg version="1.1" xmlns="http://www.w3.org/2000/svg" width="500" height="500">
<path d="M0 0 C1.26457031 0.33386719 2.52914062 0.66773437 3.83203125 1.01171875 C10.55880388 2.93946375 17.09725171 5.4656207 23.62329102 7.98217773 C29.14592965 10.54490827 29.14592965 10.54490827 34.87695312 10.32592773 C35.50537109 9.96958252 36.13378906 9.6132373 36.78125 9.24609375 C50.78777571 1.72275464 66.5043551 -1.17116577 82 -4 C82.91330078 -4.18103271 83.82660156 -4.36206543 84.76757812 -4.54858398 C88.84710223 -5.1183 92.84264988 -5.18160496 96.95703125 -5.203125 C98.24887581 -5.21167511 98.24887581 -5.21167511 99.56681824 -5.22039795 C101.38982936 -5.22981882 103.2128573 -5.23637031 105.03588867 -5.24023438 C107.76578483 -5.2498357 110.49489291 -5.28084251 113.22460938 -5.3125 C124.48886998 -5.38092225 135.00052433 -4.42237632 146 -2 C146.94367432 -1.79584473 147.88734863 -1.59168945 148.85961914 -1.38134766 C151.12949582 -0.86081117 153.37676646 -0.29416619 155.625 0.3125 C156.41366455 0.52414795 157.2023291 0.7357959 158.01489258 0.95385742 C187.0368959 9.00689943 211.45491489 25.36571295 233 46 C233.61617188 46.56847656 234.23234375 47.13695312 234.8671875 47.72265625 C236 49 236 49 236 51 C236.99 51.33 237.98 51.66 239 52 C243 56.45714286 243 56.45714286 243 59 C243.66 59 244.32 59 245 59 C245.474375 59.886875 245.94875 60.77375 246.4375 61.6875 C248.43434598 65.2311985 250.77542939 68.41518043 253.1875 71.6875 C259.20105841 80.05998194 263.09808575 89.5067668 267 99 C267.27408691 99.64324219 267.54817383 100.28648437 267.83056641 100.94921875 C270.24534772 106.90660631 271.40838607 113.08165138 272.625 119.375 C272.94984375 120.98375 272.94984375 120.98375 273.28125 122.625 C279.50636293 154.21168412 275.85707708 186.9384255 262 216 C261.7122168 216.62181152 261.42443359 217.24362305 261.12792969 217.88427734 C257.22225632 226.32276363 252.67572784 233.6561747 247 241 C246.23042969 242.04671875 245.46085937 243.0934375 244.66796875 244.171875 C241.01909135 249.13386417 237.42864673 253.70512797 233 258 C232.38898438 258.63421875 231.77796875 259.2684375 231.1484375 259.921875 C214.7411787 276.83508452 194.69401108 289.15155934 173 298 C171.91460937 298.45375 170.82921875 298.9075 169.7109375 299.375 C154.13941873 305.43690512 136.26502524 309.0691746 119.55859375 309.23828125 C118.76178192 309.24793915 117.96497009 309.25759705 117.14401245 309.26754761 C114.57512731 309.29229674 112.0064914 309.30493297 109.4375 309.3125 C108.56306244 309.31545074 107.68862488 309.31840149 106.78768921 309.32144165 C93.88149243 309.33136232 81.58842508 308.64587131 69.01123047 305.49951172 C67.26023975 305.06463347 65.49213003 304.69986378 63.72265625 304.34765625 C54.46505231 302.40470234 45.79010377 298.44780465 37.09960938 294.80029297 C33.18319242 293.14060676 33.18319242 293.14060676 29.14282227 293.67407227 C28.51947998 294.03041748 27.8961377 294.3867627 27.25390625 294.75390625 C23.24573225 296.90731738 19.25131534 298.50550549 14.9375 299.9375 C14.18235107 300.18910889 13.42720215 300.44071777 12.64916992 300.69995117 C-2.23966906 305.47284211 -18.10961403 309.05803495 -33.7734375 309.2734375 C-34.60648407 309.28587494 -35.43953064 309.29831238 -36.29782104 309.31112671 C-55.14577008 309.53801536 -72.71864793 309.11695652 -91 304 C-91.68320313 303.81888672 -92.36640625 303.63777344 -93.0703125 303.45117188 C-96.77899778 302.46193051 -100.39019995 301.30173095 -104 300 C-105.02222656 299.64421875 -106.04445313 299.2884375 -107.09765625 298.921875 C-120.14060041 294.16746036 -132.56114301 287.86854708 -144 280 C-144.91265625 279.37351562 -145.8253125 278.74703125 -146.765625 278.1015625 C-152.426065 274.10130742 -157.63539052 269.79719544 -162.7109375 265.078125 C-164.98209923 262.9597406 -164.98209923 262.9597406 -167.5078125 261.0703125 C-170.23368208 258.80587539 -172.29544678 256.39621655 -174.5 253.625 C-176.98086175 250.5228874 -179.46108122 247.43913705 -182.0625 244.4375 C-184 242 -184 242 -184 240 C-184.66 240 -185.32 240 -186 240 C-187.35693359 238.13916016 -187.35693359 238.13916016 -188.8984375 235.5390625 C-189.46046875 234.59160156 -190.0225 233.64414062 -190.6015625 232.66796875 C-191.18679687 231.66378906 -191.77203125 230.65960938 -192.375 229.625 C-192.9525 228.65949219 -193.53 227.69398438 -194.125 226.69921875 C-197.68870023 220.63767385 -200.62539529 214.61614002 -203 208 C-203.27005859 207.25492188 -203.54011719 206.50984375 -203.81835938 205.7421875 C-204.59003291 203.56448225 -205.33328976 201.37976915 -206.0625 199.1875 C-206.44764771 198.03072754 -206.44764771 198.03072754 -206.84057617 196.85058594 C-208.9726406 190.32101167 -210.69036153 183.74605138 -212 177 C-212.17200928 176.12496826 -212.34401855 175.24993652 -212.52124023 174.34838867 C-213.08120758 170.43204386 -213.18085131 166.57633805 -213.203125 162.62890625 C-213.20882507 161.82952133 -213.21452515 161.03013641 -213.22039795 160.20652771 C-213.22981249 158.51636054 -213.23636777 156.8261753 -213.24023438 155.13598633 C-213.24985246 152.60138002 -213.28087234 150.06761655 -213.3125 147.53320312 C-213.41856995 131.3599629 -210.02862732 117.32458262 -205 102 C-204.71640625 100.99582031 -204.4328125 99.99164063 -204.140625 98.95703125 C-198.0271807 78.05020522 -183.3321845 59.08804144 -168 44 C-167.24460938 43.20980469 -166.48921875 42.41960937 -165.7109375 41.60546875 C-156.85735324 32.44097267 -146.79816612 25.66806463 -136 19 C-135.18917969 18.48566406 -134.37835938 17.97132812 -133.54296875 17.44140625 C-120.22148489 9.15583067 -106.03010402 4.20912485 -91 0 C-90.08331543 -0.26264648 -89.16663086 -0.52529297 -88.22216797 -0.79589844 C-60.26806311 -8.4885988 -27.84845652 -7.78640286 0 0 Z M-119 17 C-120.12921875 17.515625 -121.2584375 18.03125 -122.421875 18.5625 C-143.80749757 28.75668278 -164.23409238 45.60258472 -178 65 C-178 65.66 -178 66.32 -178 67 C-178.66 67 -179.32 67 -180 67 C-180.53625 67.94875 -181.0725 68.8975 -181.625 69.875 C-182.83073204 71.99878064 -184.05897403 74.0941545 -185.35546875 76.1640625 C-189.91308269 83.47090737 -193.57145295 91.10796264 -197 99 C-197.49802124 100.12643921 -197.49802124 100.12643921 -198.00610352 101.27563477 C-200.72889497 107.70147388 -202.33292885 114.10366677 -203.6875 120.9375 C-203.89955078 121.94490234 -204.11160156 122.95230469 -204.33007812 123.99023438 C-209.94817851 151.54905486 -207.54210782 182.18539327 -196 208 C-195.73767578 208.59425781 -195.47535156 209.18851563 -195.20507812 209.80078125 C-186.76690964 228.62588693 -174.6579446 244.58926702 -160 259 C-158.65615234 260.32451172 -158.65615234 260.32451172 -157.28515625 261.67578125 C-124.76096998 292.19685718 -80.42179918 304.30129398 -36.78125 303.10058594 C-15.19819569 302.32001902 5.04430071 297.1676447 25 289 C22.28717631 286.89617755 19.53478687 285.08920254 16.5625 283.375 C6.38137414 277.2902449 -2.67005624 270.73669198 -11.24609375 262.578125 C-13.18171073 260.76605804 -15.08761577 259.09718186 -17.14453125 257.44140625 C-19.65701865 255.29324671 -21.39699734 253.39064399 -23.25 250.6875 C-24.62394366 248.6240222 -24.62394366 248.6240222 -26 247 C-26.66 247 -27.32 247 -28 247 C-28.40859253 246.12492798 -28.40859253 246.12492798 -28.82543945 245.23217773 C-29.98104694 243.0360191 -31.26309908 241.23422392 -32.79296875 239.28515625 C-57.5822763 206.71114951 -64.31161149 167.35908466 -59.36376953 127.48876953 C-57.81217562 116.87336794 -54.06922861 106.87561329 -50 97 C-49.55914062 95.86820312 -49.11828125 94.73640625 -48.6640625 93.5703125 C-43.73798823 81.35038241 -36.94558668 70.91254261 -28.43359375 60.890625 C-26.7985979 59.12983889 -26.7985979 59.12983889 -27 57 C-26.01 56.67 -25.02 56.34 -24 56 C-22.77666468 54.5458467 -21.61882543 53.03601457 -20.5 51.5 C-16.69803377 46.60077513 -12.5238506 42.89493463 -7.65234375 39.0859375 C-5.35788521 37.28145906 -3.21005863 35.41093226 -1.0625 33.4375 C6.76653298 26.52105369 16.00849396 21.25167609 25 16 C15.57885822 9.71923882 3.62868213 7.22671386 -7.25 4.6875 C-8.32580322 4.43323242 -9.40160645 4.17896484 -10.51000977 3.91699219 C-46.90236432 -4.26356614 -85.50546932 1.37572913 -119 17 Z M39 15 C42.68697045 18.07247538 46.55310237 20.66647991 50.625 23.1875 C60.96674128 29.72369764 70.05329223 37.68270886 79 46 C79.67675781 46.62261719 80.35351562 47.24523437 81.05078125 47.88671875 C107.67415357 73.33631513 123.38814704 110.43108601 125 147 C125.04125 147.91523438 125.0825 148.83046875 125.125 149.7734375 C125.45900556 165.01244131 122.80095395 179.44754009 118.56542969 194.02197266 C118.10742731 195.62418994 117.69166057 197.23844024 117.2890625 198.85546875 C115.33511176 206.43019987 111.59131905 213.23532576 107.97705078 220.12695312 C107.13189118 221.74715914 106.31163332 223.38030929 105.49609375 225.015625 C92.66639591 250.01708745 70.09836059 269.59759748 46.3984375 283.90625 C43.80534738 285.50383196 41.38294201 287.11300024 39 289 C57.14919291 296.92561654 77.06197504 302.89337955 97 303 C98.74870417 303.03746978 100.4974015 303.07525948 102.24609375 303.11328125 C130.97789065 303.58154985 158.19228797 299.2713616 184 286 C184.75748535 285.61440918 185.5149707 285.22881836 186.29541016 284.83154297 C204.59274078 275.40334039 220.89635677 262.97567463 234 247 C234.72960937 246.14664063 235.45921875 245.29328125 236.2109375 244.4140625 C241.14875257 238.55758416 245.23381922 232.65358605 249 226 C249.62648438 224.99839844 250.25296875 223.99679687 250.8984375 222.96484375 C268.55292331 194.04801354 274.44547239 154.86495647 266.90869141 121.80541992 C266.32472964 119.51794983 265.68118079 117.26036894 265 115 C264.74798828 114.16339844 264.49597656 113.32679688 264.23632812 112.46484375 C260.8139839 101.45096857 256.52135778 91.12248927 251 81 C250.65453125 80.33226562 250.3090625 79.66453125 249.953125 78.9765625 C231.57666154 44.6415913 196.53251264 19.72151386 160 8 C155.71269707 6.81719137 151.39929134 5.79639197 147.0625 4.8125 C145.42764648 4.42288086 145.42764648 4.42288086 143.75976562 4.02539062 C108.85285196 -4.00133284 71.64859052 1.1672028 39 15 Z " fill="#FFFFFF" transform="translate(219,95)"/>
</svg>
