<?xml version="1.0" encoding="UTF-8"?>
<svg version="1.1" xmlns="http://www.w3.org/2000/svg" width="500" height="500">
<path d="M0 0 C1.0111084 0.29503418 2.0222168 0.59006836 3.06396484 0.89404297 C23.68273603 6.95696158 23.68273603 6.95696158 32.83935547 12.14672852 C36.5056669 13.59461083 38.75191926 12.10504854 42.265625 10.6171875 C42.89637939 10.34028076 43.52713379 10.06337402 44.17700195 9.77807617 C52.06276647 6.34273959 60.05947077 3.60569168 68.3125 1.1875 C69.28928711 0.89794434 70.26607422 0.60838867 71.27246094 0.31005859 C84.02269475 -3.33317169 96.12823593 -4.37301737 109.32373047 -4.37060547 C111.96779403 -4.37494712 114.61013968 -4.4112888 117.25390625 -4.44921875 C133.83567053 -4.56032129 149.5182503 -1.70963508 165.1875 3.75 C166.69582397 4.26759888 166.69582397 4.26759888 168.23461914 4.7956543 C188.29640982 11.84119268 205.92116525 22.06320225 222 36 C222.73347656 36.60070312 223.46695312 37.20140625 224.22265625 37.8203125 C225.85634837 39.1649418 227.43594407 40.57497126 229 42 C229 42.66 229 43.32 229 44 C229.66 44 230.32 44 231 44 C233.54738923 46.46271147 235.7294294 49.28311495 238 52 C239.04414062 53.19689453 239.04414062 53.19689453 240.109375 54.41796875 C258.43227293 75.89214523 269.97183105 102.57325974 276 130 C276.17660156 130.79349854 276.35320312 131.58699707 276.53515625 132.40454102 C278.45659464 142.19615676 278.39917323 151.99883258 278.375 161.9375 C278.3737915 162.85240204 278.37258301 163.76730408 278.37133789 164.70993042 C278.32297286 178.18032909 277.88411861 191.01086861 274 204 C273.72091797 204.95567871 273.44183594 205.91135742 273.15429688 206.89599609 C266.30359755 229.86620186 256.86743342 252.22648788 240.07421875 269.7734375 C237.26274288 272.79140594 234.84387245 276.05730905 232.41015625 279.3828125 C231.94480469 279.91648437 231.47945313 280.45015625 231 281 C230.34 281 229.68 281 229 281 C228.65775391 281.85851562 228.65775391 281.85851562 228.30859375 282.734375 C215.7640014 304.45337072 177.11973039 318.67511278 154 325 C153.24251465 325.21027832 152.4850293 325.42055664 151.70458984 325.63720703 C116.85528669 334.78596402 73.92897328 330.87048586 42.0625 314 C41.37285156 313.5875 40.68320313 313.175 39.97265625 312.75 C37.2498305 311.71478704 35.76837933 312.15364307 33 313 C31.12648664 313.85463388 29.27392524 314.75583819 27.4375 315.6875 C19.38654879 319.46818317 11.10562207 322.01664036 2.52490234 324.31835938 C0.94246986 324.74556412 -0.63617605 325.18735054 -2.20849609 325.65039062 C-25.79650311 332.50958491 -56.51907318 331.93413849 -80 325 C-81.74579203 324.52363246 -83.49190029 324.04842272 -85.23828125 323.57421875 C-94.18543673 321.07619906 -102.6977131 318.20428753 -111 314 C-112.21628021 313.42979423 -113.43382935 312.86229064 -114.65234375 312.296875 C-134.02405379 303.16412358 -151.10768829 290.31315019 -165 274 C-165.57878906 273.36964844 -166.15757812 272.73929687 -166.75390625 272.08984375 C-187.44292192 249.48073382 -200.63442731 220.20610328 -205 190 C-205.11279297 189.28618164 -205.22558594 188.57236328 -205.34179688 187.83691406 C-208.43046576 168.08953699 -207.28431778 148.64699512 -204 129 C-203.82307617 127.89591797 -203.82307617 127.89591797 -203.64257812 126.76953125 C-200.04720992 105.44107582 -190.1807368 84.70670115 -178 67 C-177.61150879 66.42813965 -177.22301758 65.8562793 -176.82275391 65.26708984 C-173.26783954 60.07240316 -169.63785921 55.28110081 -165 51 C-161.59758701 47.69433809 -158.30295709 44.42438218 -155.375 40.6875 C-143.70006026 26.88142047 -125.10871137 17.5093241 -109 10 C-108.28900146 9.66564941 -107.57800293 9.33129883 -106.84545898 8.98681641 C-99.00060101 5.38659761 -90.89896716 2.99680953 -82.58935547 0.71386719 C-80.98026746 0.27025288 -79.37435171 -0.18526545 -77.77392578 -0.65917969 C-54.33173852 -7.47143923 -23.31049276 -7.10657525 0 0 Z M45 17 C45 17.66 45 18.32 45 19 C46.49810561 20.23974691 46.49810561 20.23974691 48.48046875 21.43359375 C49.22643311 21.9121582 49.97239746 22.39072266 50.7409668 22.88378906 C51.54832275 23.39651367 52.35567871 23.90923828 53.1875 24.4375 C64.3844121 31.72912879 74.56882965 39.53295649 83 50 C84.07936045 51.27420936 85.16257779 52.54516365 86.25 53.8125 C86.93835938 54.62654297 86.93835938 54.62654297 87.640625 55.45703125 C88.54118714 56.47922104 89.476794 57.47163947 90.4453125 58.4296875 C118.18306621 86.4462126 129.23911854 129.20885564 129.25097656 167.53100586 C128.83910456 208.52163089 111.97421139 247.18312638 83.60888672 276.30859375 C82.14655674 277.84592639 80.75192828 279.41429005 79.37890625 281.03125 C69.8111995 292.21714032 57.53807529 299.5438024 45 307 C66.37339064 324.86278542 107.60584439 323.55519306 133.23168945 321.58569336 C165.34071798 318.42928698 197.56693888 302.96291423 220.51269531 280.45214844 C222.07142957 278.93025885 223.65541797 277.43791173 225.2421875 275.9453125 C252.21751332 250.2168956 270.00978878 211.92194457 271.10058594 174.55419922 C271.86394578 137.20140021 265.59763488 102.28964831 244 71 C243.30003906 69.96230469 242.60007812 68.92460937 241.87890625 67.85546875 C229.03960598 50.02692168 211.69339657 32.98158456 192 23 C190.87464844 22.39542969 189.74929688 21.79085937 188.58984375 21.16796875 C144.72588348 -2.03889744 90.15410494 -4.12800769 45 17 Z M28.0625 27.875 C27.40588379 28.27557617 26.74926758 28.67615234 26.07275391 29.08886719 C17.34009264 34.52130934 9.20624161 40.64089872 2 48 C0.87490915 49.0833454 -0.25289782 50.16387423 -1.3828125 51.2421875 C-31.63712008 80.44003385 -48.27522896 119.25166247 -49.35131836 161.27539062 C-49.50845438 179.35413245 -47.25376081 197.01217214 -41 214 C-40.42958984 215.63582031 -40.42958984 215.63582031 -39.84765625 217.3046875 C-34.68888675 231.51301561 -27.5253652 244.55666617 -19 257 C-18.45988281 257.78890625 -17.91976562 258.5778125 -17.36328125 259.390625 C-16.91339844 259.92171875 -16.46351563 260.4528125 -16 261 C-15.34 261 -14.68 261 -14 261 C-13.71125 261.598125 -13.4225 262.19625 -13.125 262.8125 C-11.95257974 265.19327792 -11.95257974 265.19327792 -10 268 C-9.34 268 -8.68 268 -8 268 C-7.74992187 268.58910156 -7.49984375 269.17820312 -7.2421875 269.78515625 C-5.83561753 272.29309705 -4.34445666 273.62424578 -2.125 275.4375 C0.18465596 277.33001278 2.05391875 279.06900712 3.8984375 281.4296875 C10.04426404 288.94633037 19.39540825 294.4412074 27.5 299.6875 C28.16999023 300.13375732 28.83998047 300.58001465 29.53027344 301.03979492 C32.22714886 302.73977748 34.28773398 303.99448711 37.5234375 304.01953125 C40.904363 302.62769914 44.01453705 300.90459219 47.125 299 C47.78516113 298.59845703 48.44532227 298.19691406 49.12548828 297.78320312 C58.01466991 292.26058096 65.61497387 285.60042142 72.890625 278.10546875 C74.82941647 276.17026764 76.82719842 274.43060911 78.9375 272.6875 C87.62084418 265.19768321 94.14232252 255.76760507 100 246 C100.52335938 245.17886719 101.04671875 244.35773438 101.5859375 243.51171875 C105.49986966 237.28320235 108.3653469 230.85902909 111 224 C111.52400391 222.63875 111.52400391 222.63875 112.05859375 221.25 C127.53396225 179.82177616 126.22314312 137.29616576 108.1875 96.9375 C99.7358783 78.51859299 87.85458014 62.79538399 73 49 C72.05833984 48.12214844 72.05833984 48.12214844 71.09765625 47.2265625 C69.1042631 45.43124436 67.06844575 43.70856414 65 42 C64.49984375 41.5860498 63.9996875 41.17209961 63.484375 40.74560547 C47.23843709 25.87531545 47.23843709 25.87531545 28.0625 27.875 Z " fill="#FFFFFF" transform="translate(214,84)"/>
</svg>
