<?xml version="1.0" encoding="UTF-8"?>
<svg version="1.1" xmlns="http://www.w3.org/2000/svg" width="500" height="500">
<path d="M0 0 C2.61759051 0.00848058 5.23296644 -0.0203253 7.8503418 -0.05200195 C25.21895985 -0.12712732 41.33308465 3.24391425 57.69995117 8.94604492 C58.83045898 9.32374023 59.9609668 9.70143555 61.12573242 10.09057617 C65.91643909 11.72109739 70.48471462 13.36727488 74.93432617 15.78979492 C78.19495954 17.65036089 78.19495954 17.65036089 81.05151367 17.36791992 C84.02099351 16.22655634 86.92556211 15.00719056 89.82495117 13.69604492 C102.96324099 7.93284482 116.38631611 4.13981354 130.44995117 1.44604492 C131.33908203 1.26952393 132.22821289 1.09300293 133.14428711 0.91113281 C137.22549171 0.33693084 141.22001538 0.24548067 145.33666992 0.20776367 C146.19315628 0.19969193 147.04964264 0.19162018 147.93208313 0.18330383 C149.74669403 0.16950932 151.56133037 0.15876657 153.37597656 0.15087891 C155.19376477 0.13946851 157.01152247 0.11919509 158.82910156 0.08935547 C171.90043 -0.12461507 183.79085291 1.17433133 196.44995117 4.44604492 C197.47354736 4.70297119 198.49714355 4.95989746 199.55175781 5.22460938 C201.93210734 5.85394924 204.28466995 6.53357657 206.63745117 7.25854492 C207.45785889 7.50862305 208.2782666 7.75870117 209.12353516 8.01635742 C225.87974175 13.28542113 241.07632357 21.40115459 255.44995117 31.44604492 C256.44124023 32.13569336 257.4325293 32.8253418 258.45385742 33.53588867 C270.14882977 41.967857 279.62790291 52.08352516 288.44995117 63.44604492 C289.38387695 64.63133789 289.38387695 64.63133789 290.33666992 65.84057617 C294.44995117 71.16195401 294.44995117 71.16195401 294.44995117 73.44604492 C295.10995117 73.44604492 295.76995117 73.44604492 296.44995117 73.44604492 C311.10143587 92.38405512 319.02573203 119.04310837 322.44995117 142.44604492 C322.54493896 143.09033447 322.63992676 143.73462402 322.73779297 144.3984375 C327.85147322 183.61241038 319.59329015 227.77309578 296.44995117 260.44604492 C295.78995117 260.44604492 295.12995117 260.44604492 294.44995117 260.44604492 C294.19729492 261.17049805 293.94463867 261.89495117 293.68432617 262.64135742 C281.4584944 290.42030429 245.50664329 311.90519796 218.60668945 322.62133789 C199.45234684 329.94569485 180.05579717 334.17024826 159.52270508 333.9675293 C156.9493195 333.94603965 154.3787236 333.96751423 151.80541992 333.99291992 C134.56917341 334.02483643 118.49578388 330.62528849 102.26245117 324.94604492 C100.57925781 324.37950195 100.57925781 324.37950195 98.86206055 323.80151367 C92.57062532 321.65393871 86.46240209 319.28453277 80.44995117 316.44604492 C81.78094498 312.4530635 84.18069667 311.6803704 87.69995117 309.82104492 C97.51224889 304.4218793 106.78736954 298.38008882 114.96166992 290.66088867 C116.44995117 289.44604492 116.44995117 289.44604492 118.44995117 289.44604492 C118.79026367 288.60879883 118.79026367 288.60879883 119.13745117 287.75463867 C120.82429449 284.78760176 122.96901703 282.85204095 125.44995117 280.50854492 C132.18824892 273.98334247 138.42013668 266.71963712 143.10620117 258.56323242 C143.54963867 257.86456055 143.99307617 257.16588867 144.44995117 256.44604492 C145.10995117 256.44604492 145.76995117 256.44604492 146.44995117 256.44604492 C146.69229492 255.7834668 146.93463867 255.12088867 147.18432617 254.43823242 C148.46388092 251.41311224 149.9441757 248.6035827 151.52099609 245.72680664 C163.14131771 224.47863105 170.1974711 201.70945761 171.44995117 177.44604492 C171.50771729 176.4321167 171.50771729 176.4321167 171.56665039 175.39770508 C173.12739289 143.67813728 165.41530703 108.55035862 147.20385742 82.09448242 C145.44995117 79.44604492 145.44995117 79.44604492 145.44995117 77.44604492 C144.78995117 77.44604492 144.12995117 77.44604492 143.44995117 77.44604492 C143.44995117 76.45604492 143.44995117 75.46604492 143.44995117 74.44604492 C142.78995117 74.44604492 142.12995117 74.44604492 141.44995117 74.44604492 C140.43885638 72.78608556 139.44210629 71.11739348 138.44995117 69.44604492 C123.79561788 50.61768694 107.00492987 36.39252827 86.44995117 24.44604492 C85.7925293 24.02323242 85.13510742 23.60041992 84.45776367 23.16479492 C80.58936334 21.77999792 77.32047551 23.03704857 73.73120117 24.72338867 C63.1833513 31.01950692 52.86226518 37.81355736 43.90307617 46.26635742 C42.44995117 47.44604492 42.44995117 47.44604492 40.44995117 47.44604492 C40.1947168 48.0312793 39.93948242 48.61651367 39.67651367 49.21948242 C38.32800124 51.667419 36.86107667 53.16471229 34.82495117 55.07104492 C30.24629007 59.53358056 26.34153636 64.38297224 22.44995117 69.44604492 C21.85569336 70.20788086 21.26143555 70.9697168 20.64916992 71.75463867 C17.51200786 75.79830066 17.51200786 75.79830066 15.44995117 80.44604492 C15.01038086 80.85854492 14.57081055 81.27104492 14.11791992 81.69604492 C11.6797408 84.25413449 10.30083844 87.30182065 8.76245117 90.44604492 C8.41722412 91.14882568 8.07199707 91.85160645 7.71630859 92.57568359 C-10.58885201 130.34172776 -17.84179104 173.55013267 -4.29418945 214.38647461 C-1.45703388 222.238917 1.97944782 229.85759178 5.44995117 237.44604492 C5.99006836 238.6294043 6.53018555 239.81276367 7.08666992 241.03198242 C13.59960116 254.62884161 22.70268288 267.87409911 33.44995117 278.44604492 C34.33951418 279.5174523 35.2165528 280.59951022 36.07495117 281.69604492 C39.46626724 285.71830351 43.4607216 288.87671433 47.57104492 292.13745117 C49.68837263 293.8353354 51.70171695 295.56054579 53.72338867 297.36401367 C57.72968416 300.81666024 62.10241884 303.49670993 66.63745117 306.19604492 C67.82757813 306.91727539 67.82757813 306.91727539 69.04174805 307.65307617 C72.46031874 309.71397773 75.85999583 311.69602331 79.44995117 313.44604492 C79.44995117 314.43604492 79.44995117 315.42604492 79.44995117 316.44604492 C70.34525728 320.85111006 61.16085975 324.34929176 51.44995117 327.19604492 C50.50313477 327.47714111 49.55631836 327.7582373 48.58081055 328.04785156 C34.09930382 332.17017199 20.55145274 333.94487509 5.54980469 333.8371582 C2.88644394 333.82103883 0.22459522 333.83712333 -2.4387207 333.85620117 C-12.87514615 333.86834357 -22.40625782 332.9403421 -32.55004883 330.44604492 C-34.11783081 330.096427 -34.11783081 330.096427 -35.71728516 329.73974609 C-50.52627902 326.42437942 -64.23477103 320.60950033 -77.55004883 313.44604492 C-78.15977539 313.1237793 -78.76950195 312.80151367 -79.39770508 312.46948242 C-115.58968305 293.24005136 -144.14343355 257.78556809 -156.44580078 218.76831055 C-164.7452812 190.95455247 -167.5220374 158.92474657 -160.55004883 130.44604492 C-160.32961914 129.53129395 -160.10918945 128.61654297 -159.88208008 127.67407227 C-153.36158674 101.47566153 -141.40239654 77.79959721 -123.55004883 57.44604492 C-123.06874512 56.89384277 -122.58744141 56.34164062 -122.09155273 55.77270508 C-101.12619787 31.91819887 -73.98426642 14.99662849 -43.36254883 6.38354492 C-42.53174805 6.14055664 -41.70094727 5.89756836 -40.8449707 5.6472168 C-38.09061159 4.86352367 -35.32774978 4.1425847 -32.55004883 3.44604492 C-31.45829346 3.17026611 -30.36653809 2.8944873 -29.24169922 2.61035156 C-19.44131059 0.38006473 -10.01831815 -0.04921409 0 0 Z " fill="#FFFFFF" transform="translate(168.550048828125,79.553955078125)"/>
<path d="M0 0 C4.93577485 1.58317306 8.99338322 4.23450687 13.3125 7.0625 C14.488125 7.82046875 14.488125 7.82046875 15.6875 8.59375 C30.22627498 18.35003321 43.28145445 30.4318332 53.46484375 44.65625 C55.08722012 47.13196439 55.08722012 47.13196439 57.3125 48.0625 C58.22194777 49.60156546 59.12105115 51.1472918 59.98046875 52.71484375 C61.65039697 55.65803102 63.45259923 58.50795959 65.25 61.375 C85.9162606 94.91687547 91.78869397 137.52720934 83.58203125 175.953125 C81.70248524 183.85348837 79.19580129 191.47773991 76.3125 199.0625 C75.92320312 200.135 75.53390625 201.2075 75.1328125 202.3125 C68.45780329 219.6214894 56.49424526 237.1168457 43.3125 250.0625 C42.37476364 251.04155807 41.43998912 252.02345944 40.5078125 253.0078125 C32.77001756 261.07697427 24.60065791 267.84947546 15.3125 274.0625 C14.63767578 274.5177002 13.96285156 274.97290039 13.26757812 275.44189453 C11.25714187 276.78044185 9.22875392 278.08403665 7.1875 279.375 C6.26445068 279.98069824 6.26445068 279.98069824 5.32275391 280.59863281 C2.53645228 282.29611456 0.98523329 283.21312712 -2.26953125 282.484375 C-3.06746094 282.01515625 -3.86539063 281.5459375 -4.6875 281.0625 C-5.57566406 280.59714844 -6.46382813 280.13179688 -7.37890625 279.65234375 C-21.79633717 271.35496514 -34.09825196 260.92841444 -45.6875 249.0625 C-46.24566406 248.54429687 -46.80382812 248.02609375 -47.37890625 247.4921875 C-48.6875 246.0625 -48.6875 246.0625 -48.6875 244.0625 C-49.6775 243.7325 -50.6675 243.4025 -51.6875 243.0625 C-53.23046875 241.1640625 -53.23046875 241.1640625 -54.875 238.6875 C-56.70288015 235.95715182 -58.50780348 233.28544299 -60.5703125 230.7265625 C-70.20339494 218.67545937 -75.59935263 203.47844929 -80.6875 189.0625 C-81.37005859 187.21591797 -81.37005859 187.21591797 -82.06640625 185.33203125 C-91.99608196 156.32951309 -91.58295038 121.72005251 -80.6875 93.0625 C-80.40245605 92.28986816 -80.11741211 91.51723633 -79.82373047 90.72119141 C-74.26588166 75.74415846 -67.99893988 60.4472857 -57.6875 48.0625 C-56.53960251 46.56407904 -55.39387474 45.06399412 -54.25 43.5625 C-46.90792279 34.18095689 -46.90792279 34.18095689 -43.6875 31.0625 C-43.0275 31.0625 -42.3675 31.0625 -41.6875 31.0625 C-41.44644531 30.49273437 -41.20539063 29.92296875 -40.95703125 29.3359375 C-34.45366268 17.68990518 -18.60042979 9.96085842 -7.6875 3.0625 C-6.3878833 2.22900024 -6.3878833 2.22900024 -5.06201172 1.37866211 C-2.6875 0.0625 -2.6875 0.0625 0 0 Z " fill="#FFFFFF" transform="translate(249.6875,105.9375)"/>
</svg>
